<?xml version="1.0" standalone="no"?>
<!DOCTYPE svg PUBLIC "-//W3C//DTD SVG 20010904//EN"
 "http://www.w3.org/TR/2001/REC-SVG-20010904/DTD/svg10.dtd">
<svg version="1.0" xmlns="http://www.w3.org/2000/svg"
 width="1212.000000pt" height="686.000000pt" viewBox="0 0 1212.000000 686.000000"
 preserveAspectRatio="xMidYMid meet">
<metadata>
Created by potrace 1.16, written by Peter Selinger 2001-2019
</metadata>
<g transform="translate(0.000000,686.000000) scale(0.100000,-0.100000)"
fill="#000000" stroke="none">
<path d="M0 3430 l0 -3430 6060 0 6060 0 0 3430 0 3430 -6060 0 -6060 0 0
-3430z m3950 1395 l0 -215 -40 0 c-34 0 -40 3 -40 20 0 21 0 21 -28 0 -35 -26
-100 -29 -135 -6 -74 49 -70 238 5 285 32 20 96 16 129 -8 l29 -22 0 81 0 80
40 0 40 0 0 -215z m3220 0 l0 -215 -45 0 -45 0 0 215 0 215 45 0 45 0 0 -215z
m-4675 184 c74 -21 135 -106 135 -189 0 -43 -21 -104 -47 -139 -41 -54 -91
-71 -215 -71 l-108 0 0 205 0 205 98 0 c53 0 115 -5 137 -11z m2273 -186 c40
-109 72 -202 72 -206 0 -5 -19 -7 -42 -5 -41 3 -43 5 -57 51 l-15 47 -80 0
-81 0 -18 -50 c-18 -50 -18 -50 -62 -50 l-44 0 23 63 c13 34 47 126 76 205
l52 142 52 0 52 0 72 -197z m1223 162 c61 -43 82 -83 82 -160 0 -83 -30 -146
-86 -183 -37 -25 -50 -27 -159 -30 l-118 -4 0 207 0 207 119 -3 c114 -4 121
-5 162 -34z m-2773 -84 c19 -10 52 -58 52 -76 0 -3 -17 -5 -39 -5 -30 0 -42 5
-55 25 -19 28 -51 32 -81 10 -14 -12 -20 -31 -23 -79 -4 -59 -2 -67 21 -90 34
-34 53 -33 85 4 31 36 92 44 92 12 0 -77 -143 -123 -224 -72 -60 36 -82 130
-50 209 31 79 136 108 222 62z m352 -16 c77 -74 62 -205 -28 -258 -44 -26
-132 -25 -176 2 -85 53 -89 214 -8 267 61 40 165 34 212 -11z m1548 30 c38
-11 53 -57 56 -174 2 -58 1 -112 -2 -118 -2 -8 -21 -13 -43 -13 l-39 0 0 103
c0 112 -13 147 -53 147 -52 -1 -67 -36 -67 -154 l0 -96 -40 0 -40 0 0 139 c0
77 -3 146 -6 155 -5 13 2 16 35 16 35 0 41 -3 47 -26 l7 -25 26 24 c37 35 59
39 119 22z m1220 -13 c29 -19 50 -58 58 -111 l7 -41 -102 0 -101 0 0 -25 c0
-53 69 -85 103 -47 12 13 27 17 52 14 38 -5 41 -9 22 -33 -41 -52 -154 -70
-206 -32 -75 56 -82 205 -12 267 40 36 130 40 179 8z m638 -2 c27 -19 50 -64
57 -112 l6 -38 -105 0 -104 0 6 -27 c4 -16 14 -36 22 -45 19 -22 65 -23 82 -3
7 9 29 15 52 15 40 0 40 0 26 -22 -25 -37 -74 -60 -127 -60 -94 0 -141 53
-141 157 0 64 19 113 52 134 48 31 132 31 174 1z m449 20 c40 0 92 -54 104
-108 25 -120 -37 -203 -153 -204 -102 -1 -156 53 -156 157 0 66 22 115 62 136
28 15 88 28 106 23 8 -2 24 -4 37 -4z m392 -5 c78 -22 94 -212 24 -279 -37
-35 -100 -38 -142 -7 l-29 22 0 -81 0 -80 -40 0 -40 0 0 199 c0 110 -3 206 -6
215 -5 13 2 16 40 16 40 0 46 -3 46 -22 0 -20 1 -20 19 -4 22 20 69 36 91 31
8 -2 25 -6 37 -10z m331 -12 c28 -17 61 -86 62 -125 l0 -28 -100 0 -100 0 0
-25 c0 -53 69 -85 106 -48 11 11 29 16 48 14 39 -4 40 -5 27 -30 -27 -50 -152
-72 -207 -36 -53 35 -78 138 -51 214 27 77 141 111 215 64z m292 -19 c0 -31
-2 -34 -23 -29 -15 4 -32 -1 -48 -13 -22 -19 -24 -28 -27 -126 l-4 -106 -39 0
-39 0 0 139 c0 77 -3 146 -6 155 -5 13 2 16 34 16 35 0 42 -4 50 -27 9 -27 9
-27 16 -6 7 22 51 44 74 35 6 -2 12 -19 12 -38z m372 19 c23 -11 48 -40 48
-56 0 -3 -14 -7 -32 -11 -24 -5 -36 -1 -50 14 -20 22 -58 26 -89 10 -32 -18
-22 -38 24 -51 125 -33 157 -56 157 -112 0 -102 -233 -131 -277 -34 -11 24
-10 25 24 32 29 5 38 3 50 -15 12 -17 23 -20 60 -18 30 2 50 9 57 20 15 25 0
36 -70 54 -72 19 -102 37 -114 70 -35 91 101 153 212 97z m-5923 1 c28 -20 60
-88 61 -126 l0 -28 -101 0 -101 0 6 -32 c10 -54 65 -77 100 -43 13 13 86 22
86 11 0 -61 -134 -100 -209 -61 -87 44 -94 217 -12 272 42 29 134 32 170 7z
m1340 0 c28 -20 60 -88 61 -126 l0 -28 -100 0 -100 0 0 -25 c0 -52 69 -85 104
-50 13 13 86 22 86 11 0 -61 -134 -100 -209 -61 -87 44 -94 217 -12 272 42 29
134 32 170 7z m1066 -1 c4 -10 22 -62 40 -116 l33 -99 36 116 37 116 44 0 45
0 -19 -47 c-116 -297 -126 -320 -157 -350 -27 -28 -39 -33 -78 -33 -44 0 -46
1 -46 30 0 25 4 30 23 30 26 0 50 16 65 44 8 15 -4 52 -54 173 l-63 153 44 0
c31 0 45 -5 50 -17z m1230 -75 c48 -160 42 -158 84 -28 l37 115 42 3 c23 2 42
-1 42 -6 0 -5 -24 -74 -54 -153 l-54 -144 -52 0 -52 0 -49 135 c-27 74 -52
143 -55 152 -5 15 1 18 39 18 l44 0 28 -92z m-255 -479 l0 -91 35 31 c86 75
185 8 185 -125 0 -141 -127 -206 -207 -104 -10 13 -12 10 -13 -17 0 -31 -2
-33 -35 -33 l-35 0 0 215 0 215 35 0 35 0 0 -91z m-1365 60 c21 -6 55 -27 75
-47 l35 -35 -34 -14 c-32 -14 -35 -13 -63 14 -25 24 -37 28 -88 28 -48 0 -63
-4 -84 -24 -55 -51 -58 -166 -7 -223 23 -26 37 -32 82 -36 36 -3 67 1 92 11
31 14 37 21 37 46 0 30 -1 31 -50 31 -49 0 -50 1 -50 30 l0 30 85 0 85 0 0
-73 0 -74 -51 -28 c-60 -32 -156 -44 -213 -25 -50 16 -94 55 -112 99 -20 47
-20 160 -1 197 45 87 150 124 262 93z m595 -69 l0 -80 95 0 95 0 0 80 0 80 40
0 40 0 0 -205 0 -205 -40 0 -40 0 0 90 0 90 -95 0 -95 0 0 -90 0 -90 -35 0
-35 0 0 205 0 205 35 0 35 0 0 -80z m-180 20 c0 -38 2 -40 30 -40 25 0 30 -4
30 -25 0 -21 -5 -25 -30 -25 l-30 0 0 -93 c0 -99 7 -117 47 -117 27 0 33 -34
7 -44 -33 -13 -84 -6 -104 14 -18 18 -20 33 -20 130 0 103 -1 110 -20 110 -15
0 -20 7 -20 25 0 20 5 25 23 25 19 0 26 8 36 40 9 29 17 40 31 40 17 0 20 -7
20 -40z m-150 -195 l0 -155 -40 0 -40 0 0 155 0 155 40 0 40 0 0 -155z m750
45 c0 -97 2 -112 20 -130 33 -33 72 -24 95 21 10 19 15 59 15 124 l0 95 35 0
35 0 0 -156 0 -155 -32 3 c-29 3 -33 7 -36 34 l-3 31 -34 -34 c-35 -35 -73
-43 -118 -22 -42 19 -51 47 -55 177 l-4 122 41 0 41 0 0 -110z"/>
<path d="M3765 4845 c-21 -20 -25 -34 -25 -80 0 -46 4 -60 25 -80 29 -30 45
-31 76 -6 21 17 24 28 24 86 0 58 -3 69 -24 86 -31 25 -47 24 -76 -6z"/>
<path d="M2350 4815 l0 -135 50 0 c91 0 140 47 140 135 0 88 -49 135 -140 135
l-50 0 0 -135z"/>
<path d="M5790 4815 l0 -135 59 0 c49 0 65 4 90 25 37 32 55 85 47 137 -13 79
-51 108 -141 108 l-55 0 0 -135z"/>
<path d="M3415 4845 c-21 -20 -25 -34 -25 -80 0 -46 4 -60 25 -80 29 -30 55
-32 86 -6 34 27 40 125 9 164 -27 34 -63 35 -95 2z"/>
<path d="M7343 4858 c-20 -10 -43 -60 -43 -93 0 -39 23 -84 49 -94 61 -26 110
34 98 123 -9 63 -51 90 -104 64z"/>
<path d="M7712 4859 c-48 -18 -59 -133 -17 -174 29 -30 45 -31 75 -7 18 14 24
32 27 73 6 83 -30 128 -85 108z"/>
<path d="M6294 4249 c-27 -30 -27 -138 0 -168 28 -31 86 -26 104 9 20 38 11
149 -13 166 -28 20 -69 17 -91 -7z"/>
</g>
</svg>
